<svg width="192" height="192" viewBox="0 0 192 192" fill="none" xmlns="http://www.w3.org/2000/svg">
  <rect width="192" height="192" rx="30" fill="#F9F9F9" />
  <path d="M58.5947 140.395H37.1914V48.4692H58.5947V57.6421H46.3643V131.173H58.5947V140.395ZM118.662 108.241C118.662 111.233 117.988 113.666 116.64 115.54C115.292 117.414 113.55 118.926 111.413 120.077C109.308 121.227 106.941 122.016 104.311 122.444C101.714 122.904 99.1657 123.134 96.667 123.134C92.4915 123.134 88.3325 122.526 84.1899 121.31C80.0474 120.093 76.4637 118.499 73.439 116.526L77.6802 108.142C81.2967 110.246 84.6009 111.742 87.5928 112.63C90.6175 113.485 93.6423 113.912 96.667 113.912C100.777 113.912 103.769 113.485 105.643 112.63C107.517 111.742 108.454 110.526 108.454 108.98C108.454 108.224 108.191 107.6 107.665 107.106C107.139 106.613 106.267 106.169 105.051 105.775C103.834 105.347 102.223 104.937 100.218 104.542C98.2451 104.115 95.7793 103.671 92.8203 103.21C90.4531 102.816 88.201 102.339 86.064 101.78C83.9598 101.188 82.1022 100.367 80.4912 99.3145C78.8802 98.2624 77.5815 96.9308 76.5952 95.3198C75.6418 93.7088 75.165 91.6868 75.165 89.2539C75.165 86.7881 75.7897 84.651 77.0391 82.8428C78.3213 81.0016 79.9816 79.4893 82.02 78.3057C84.0913 77.1221 86.4092 76.2673 88.9736 75.7412C91.5381 75.2152 94.1025 74.9521 96.667 74.9521C100.284 74.9521 103.785 75.4289 107.171 76.3823C110.591 77.3029 113.583 78.6344 116.147 80.377L112.103 88.2676C109.539 86.6566 107.04 85.5716 104.607 85.0127C102.207 84.4209 99.5602 84.125 96.667 84.125C95.4505 84.125 94.1847 84.1908 92.8696 84.3223C91.5545 84.4538 90.3381 84.7168 89.2202 85.1113C88.1024 85.473 87.1654 85.9826 86.4092 86.6401C85.6859 87.2648 85.3242 88.0374 85.3242 88.958C85.3242 90.1745 86.3927 91.1772 88.5298 91.9663C90.6997 92.7225 94.382 93.4787 99.5767 94.2349C102.404 94.6294 104.985 95.139 107.319 95.7637C109.654 96.3555 111.659 97.1774 113.336 98.2295C115.013 99.2487 116.311 100.58 117.232 102.224C118.185 103.835 118.662 105.841 118.662 108.241ZM156.636 140.395H135.232V131.173H147.463V57.6421H135.232V48.4692H156.636V140.395Z" fill="#0F0F0F" />
</svg>
