<svg fill="none" height="380" viewBox="0 0 380 380" width="380" xmlns="http://www.w3.org/2000/svg">
  <style>@media (prefers-color-scheme: dark) { .b { fill: #0f0f0f } .t { fill: #f9f9f9 } }</style>
  <path class="b" d="m0 0h380v380h-380z" fill="#f9f9f9" />
  <path class="t" d="m130.283 263.962h-36.0252v-154.727h36.0252v15.44h-20.586v123.764h20.586zm101.104-54.121c0 5.036-1.135 9.131-3.404 12.285-2.268 3.154-5.201 5.7-8.798 7.637-3.542 1.937-7.526 3.265-11.954 3.984-4.371.775-8.66 1.162-12.866 1.162-7.028 0-14.028-1.024-21.001-3.071-6.972-2.048-13.004-4.732-18.095-8.052l7.138-14.111c6.087 3.541 11.649 6.059 16.685 7.554 5.091 1.438 10.182 2.158 15.273 2.158 6.918 0 11.953-.72 15.108-2.158 3.154-1.495 4.731-3.542 4.731-6.143 0-1.273-.443-2.324-1.328-3.154s-2.352-1.578-4.399-2.242c-2.048-.719-4.76-1.411-8.135-2.075-3.321-.719-7.471-1.466-12.451-2.241-3.985-.664-7.775-1.466-11.372-2.407-3.542-.996-6.669-2.38-9.38-4.151-2.712-1.77-4.898-4.012-6.558-6.723-1.605-2.712-2.407-6.115-2.407-10.21 0-4.151 1.051-7.748 3.154-10.791 2.158-3.099 4.953-5.645 8.384-7.637 3.486-1.992 7.388-3.431 11.704-4.316 4.316-.886 8.633-1.328 12.949-1.328 6.087 0 11.981.802 17.681 2.407 5.755 1.549 10.791 3.79 15.107 6.723l-6.806 13.282c-4.317-2.712-8.522-4.538-12.618-5.479-4.039-.996-8.494-1.494-13.364-1.494-2.047 0-4.178.111-6.391.332-2.214.221-4.261.664-6.143 1.328-1.881.609-3.459 1.467-4.731 2.573-1.218 1.052-1.827 2.352-1.827 3.902 0 2.047 1.799 3.735 5.396 5.063 3.652 1.273 9.85 2.546 18.594 3.819 4.759.664 9.103 1.521 13.032 2.573 3.929.996 7.305 2.379 10.127 4.15 2.822 1.716 5.008 3.957 6.557 6.724 1.605 2.711 2.408 6.087 2.408 10.127zm63.916 54.121h-36.026v-15.523h20.586v-123.764h-20.586v-15.44h36.026z" fill="#0f0f0f" />
</svg>